HIERARCHY
ROOT Hips
{
  OFFSET 13.6774 106.653 -34.4427
  CHANNELS 6 Xposition Yposition Zposition Zrotation Xrotation Yrotation
  JOINT ToSpine
  {
    OFFSET -2.69724 7.43032 -0.144315
    CHANNELS 3 Zrotation Xrotation Yrotation
    JOINT Spine
    {
      OFFSET -0.0310711 10.7595 1.96963
      CHANNELS 3 Zrotation Xrotation Yrotation
      JOINT Spine1
      {
        OFFSET 19.9056 3.91189 0.764692
        CHANNELS 3 Zrotation Xrotation Yrotation
        JOINT Neck
        {
          OFFSET 25.9749 7.03908 -0.130764
          CHANNELS 3 Zrotation Xrotation Yrotation
          JOINT Head
          {
            OFFSET 9.52751 0.295786 -0.907742
            CHANNELS 3 Zrotation Xrotation Yrotation
            End Site
            {
              OFFSET 16.4037 0.713936 2.7358
            }
          }
        }
        JOINT LeftShoulder
        {
          OFFSET 17.7449 4.33886 11.7777
          CHANNELS 3 Zrotation Xrotation Yrotation
          JOINT LeftArm
          {
            OFFSET 0.911315 1.27913 9.80584
            CHANNELS 3 Zrotation Xrotation Yrotation
            JOINT LeftForeArm
            {
              OFFSET 28.6126 1.18197 -3.53199
              CHANNELS 3 Zrotation Xrotation Yrotation
              JOINT LeftHand
              {
                OFFSET 27.5088 0.0218783 0.327423
                CHANNELS 3 Zrotation Xrotation Yrotation
                End Site
                {
                  OFFSET 18.6038 -0.000155887 0.382096
                }
              }
            }
          }
        }
        JOINT RightShoulder
        {
          OFFSET 17.1009 2.89543 -12.2328
          CHANNELS 3 Zrotation Xrotation Yrotation
          JOINT RightArm
          {
            OFFSET 1.4228 0.178766 -10.211
            CHANNELS 3 Zrotation Xrotation Yrotation
            JOINT RightForeArm
            {
              OFFSET 28.733 1.87905 2.64907
              CHANNELS 3 Zrotation Xrotation Yrotation
              JOINT RightHand
              {
                OFFSET 27.4588 0.290562 -0.101845
                CHANNELS 3 Zrotation Xrotation Yrotation
                End Site
                {
                  OFFSET 17.8396 -0.255518 -0.000602873
                }
              }
            }
          }
        }
      }
    }
  }
  JOINT LeftUpLeg
  {
    OFFSET -5.61296 -2.22332 -10.2353
    CHANNELS 3 Zrotation Xrotation Yrotation
    JOINT LeftLeg
    {
      OFFSET 2.56703 -44.7417 -7.93097
      CHANNELS 3 Zrotation Xrotation Yrotation
      JOINT LeftFoot
      {
        OFFSET 3.16933 -46.5642 -3.96578
        CHANNELS 3 Zrotation Xrotation Yrotation
        JOINT LeftToeBase
        {
          OFFSET 0.346054 -6.02161 12.8035
          CHANNELS 3 Zrotation Xrotation Yrotation
          End Site
          {
            OFFSET 0.134235 -1.35082 5.13018
          }
        }
      }
    }
  }
  JOINT RightUpLeg
  {
    OFFSET -5.7928 -1.72406 10.6446
    CHANNELS 3 Zrotation Xrotation Yrotation
    JOINT RightLeg
    {
      OFFSET -2.57161 -44.7178 -7.85259
      CHANNELS 3 Zrotation Xrotation Yrotation
      JOINT RightFoot
      {
        OFFSET -3.10148 -46.5936 -4.03391
        CHANNELS 3 Zrotation Xrotation Yrotation
        JOINT RightToeBase
        {
          OFFSET -0.0828122 -6.13587 12.8035
          CHANNELS 3 Zrotation Xrotation Yrotation
          End Site
          {
            OFFSET -0.131328 -1.35082 5.13018
          }
        }
      }
    }
  }
}
MOTION
Frames: 17
Frame Time: 0.03333333333333333
0.0000 93.1000 0.0000 -73.5443 -8.7817 170.4757 -70.9683 -0.1395 87.8867 103.5561 67.2417 -12.0032 1.5583 16.9937 0.4644 -143.0566 8.4304 -157.7287 -144.1317 42.6836 -174.9207 0.0074 -16.1256 -26.8415 -132.1955 -6.9256 -65.8503 3.9477 1.2209 -72.9865 -0.1552 -0.1681 0.4154 -0.8695 6.4508 23.3222 -51.8199 -20.3928 139.9040 8.4223 2.8971 106.3102 0.6412 -0.2224 0.1337 -49.9270 5.8397 121.9866 -4.6823 47.2888 -13.0540 -14.5497 7.4413 3.6045 6.0461 -12.7677 -15.4481 -31.1249 -13.9798 76.4581 6.3423 59.4941 8.9209 -8.1405 15.0232 -0.0836 1.9258 -27.4411 -9.2796 
0.0000 93.1000 0.0000 -71.8467 -6.7500 174.8787 -70.9581 -0.1389 87.8696 101.6672 67.6948 -12.0662 1.8489 16.4473 2.0420 -145.4387 7.0317 -159.9999 -143.6068 40.9975 -175.7980 0.0565 -15.3780 -26.2668 -136.9684 -6.2825 -66.6468 6.3876 1.0719 -75.6129 0.1999 -0.1310 0.6782 -0.9221 6.5648 23.2174 -50.8209 -21.0963 140.0687 10.4837 3.7157 108.6494 0.8658 -0.2360 0.0435 -51.0499 5.1248 120.5572 -1.9245 39.9581 -2.6597 -8.6093 -2.4114 1.4991 5.8391 -10.5441 -17.1303 -25.9456 -9.8103 84.8816 8.8950 63.3227 14.4288 -7.0513 15.6784 0.0050 0.7768 -31.5925 -20.5966 
0.0000 93.1000 0.0000 -71.4748 -8.0588 178.0602 -70.9668 0.0484 87.8101 100.5219 68.5169 -11.3131 0.9620 16.4307 3.4359 -144.7687 5.9652 -165.1017 -143.0442 39.3742 -179.7171 -0.9539 -14.8786 -26.8045 -140.8290 -5.2914 -71.1200 8.5867 1.1382 -77.0391 -0.3211 0.8882 0.2068 -1.2598 6.0364 24.4688 -49.7725 -22.9543 141.9026 10.3616 5.2635 110.2486 -0.1660 0.9229 -0.5168 -50.3562 6.9658 118.6758 -0.6337 35.7779 0.3051 -2.6845 -7.4232 -1.0421 3.8788 -8.8098 -6.1442 -25.8441 -8.2590 89.9683 7.9656 61.4773 9.3884 -9.4249 13.5305 1.3494 1.8052 -31.9588 -24.4442 
0.0000 93.1000 0.0000 -71.9618 -11.3865 -176.7076 -70.9360 -0.1994 87.8664 97.5798 69.0626 -10.5131 0.9854 15.7570 4.7323 -142.8035 6.1935 -169.1382 -141.0380 39.5662 177.3329 -0.7234 -15.7150 -30.7883 -142.7312 -3.2097 -77.9323 10.0516 2.3797 -77.3634 -0.1825 0.6072 0.5352 -0.9444 4.7204 27.5557 -49.7165 -23.3445 140.5453 11.1393 4.4730 111.3065 0.1706 0.2320 -0.2427 -48.1025 8.5277 112.5184 -1.8055 39.1806 0.4153 -1.1685 -12.5467 -1.1052 1.5085 -5.8281 -1.4913 -28.1222 -11.7707 92.5548 5.7224 60.0483 1.4018 -13.4422 9.7553 1.8279 1.1279 -25.8574 -23.2324 
0.0000 93.1000 0.0000 -71.6322 -14.4846 -176.0023 -70.9422 -0.0929 87.7979 94.0658 68.7470 -8.0836 2.1832 15.9665 5.0321 -141.6599 5.9555 -173.9774 -140.6666 39.8523 177.2065 -1.4832 -16.9832 -31.5721 -143.7405 1.0456 -84.0821 11.7786 3.0299 -75.1117 -0.4387 1.1046 0.5071 -1.3095 5.1377 30.0399 -49.0842 -25.1341 140.1991 9.8832 5.0921 113.1399 -0.1790 0.8267 -0.2411 -44.7197 11.2222 111.1668 -2.5393 43.1230 -2.5619 -0.5450 -15.1999 -1.9474 0.8183 -4.7783 0.5645 -30.5990 -18.0389 91.9106 3.3470 55.8084 -3.5364 -17.6935 11.6740 2.6944 1.5245 -22.5939 -26.7404 
0.0000 93.1000 0.0000 -70.7536 -15.7728 -174.1089 -70.9628 -0.2172 87.8231 94.0042 69.4551 -8.0750 2.3378 17.8046 2.9012 -141.7380 6.1591 -174.5105 -140.0485 40.9756 176.6605 -1.0477 -17.9078 -33.8440 -142.4994 3.6337 -87.2289 11.7710 2.9256 -73.5732 -0.2691 0.3381 0.8618 -1.5215 5.4078 32.1800 -47.1468 -25.9592 141.3716 9.5082 4.3220 114.1576 0.4416 0.0605 0.1661 -41.1612 15.6642 109.9991 -3.7673 48.6303 -4.4787 0.1636 -15.6791 -1.5888 0.8937 -6.1561 2.5951 -34.6947 -19.3335 92.6463 2.8162 50.8287 -4.3889 -16.6512 13.3059 2.1584 2.3418 -18.6429 -21.8273 
0.0000 93.1000 0.0000 -71.7799 -14.9163 -172.7144 -70.9870 -0.0689 87.7462 96.7931 70.8287 -7.9405 1.8157 19.7064 1.0001 -141.2049 6.3857 -172.1206 -144.1542 41.6909 -178.8077 -1.6574 -17.9446 -34.6943 -141.4274 4.6986 -87.0821 13.2757 4.2064 -73.3841 -0.2753 0.6756 0.2127 -1.8168 6.2304 32.0880 -47.6353 -25.8122 141.6669 8.9443 4.7487 112.7455 0.2542 0.5292 -0.5402 -39.7224 18.0479 108.2079 -4.4957 51.0442 -4.6712 -1.0942 -16.0842 -1.9972 2.1091 -6.8981 5.0821 -38.3134 -18.3944 94.5263 2.2663 44.8648 4.1925 -13.2196 16.6515 1.7430 1.8996 -22.8320 -18.9564 
0.0000 93.1000 0.0000 -71.3791 -13.5186 -171.3651 -70.9909 -0.1156 87.7943 95.7336 71.3921 -7.5550 0.9698 20.8577 -0.1964 -141.4452 5.8307 -166.4147 -146.2265 41.7879 -177.3174 -1.6587 -18.7211 -36.6731 -141.3857 4.8786 -86.3479 13.4666 3.8058 -74.1564 -0.3121 0.4326 0.1120 -1.9766 6.7391 33.5428 -47.2348 -22.7971 143.1728 10.1577 4.4005 111.1936 0.4481 0.2072 -0.3258 -37.2528 18.8795 105.1156 -4.8316 53.8220 -3.5971 -0.4124 -17.2493 -1.9883 1.0535 -6.1583 6.8102 -40.8294 -18.4316 95.2508 2.8563 41.5971 10.2729 -9.4121 16.6201 1.0741 1.7164 -32.8625 -20.2977 
0.0000 93.1000 0.0000 -71.0422 -12.7983 -172.5946 -70.9915 -0.1455 87.8279 94.9614 72.3657 -6.3971 0.7548 22.1408 -1.2963 -142.6592 5.4108 -168.2504 -146.9357 41.0116 -176.3518 -1.5361 -18.4857 -37.1286 -140.3135 5.5264 -84.1852 13.4220 3.2501 -74.9684 -0.0969 0.2619 0.0144 -2.1390 7.1622 36.3879 -47.2965 -20.2020 142.8639 9.4420 3.5290 109.9443 0.4107 0.0690 -0.0603 -36.3556 19.2644 102.6394 -4.5788 55.1817 -2.3338 -0.9920 -17.1203 -1.7600 0.5712 -5.6099 6.7740 -42.8944 -18.3214 92.9440 1.7830 39.6076 8.3951 -6.6399 11.5507 0.7720 1.5240 -34.2453 -13.8156 
0.0000 93.1000 0.0000 -71.6624 -11.7797 -172.2011 -71.0108 -0.1605 87.8405 94.0884 72.7441 -5.3565 1.5845 23.1254 -1.2156 -141.4940 4.7763 -168.3215 -146.8587 40.5054 -176.0831 -1.5777 -19.1050 -37.7067 -140.3438 3.4078 -82.1404 12.9173 2.5490 -74.9174 -0.3989 0.1846 0.1447 -2.1930 7.2421 37.2264 -47.3166 -19.7451 143.9940 8.5382 3.5722 108.8565 0.4091 0.0168 0.0149 -35.8505 19.9906 101.3630 -4.5943 56.0354 -1.6538 -0.9318 -16.8771 -1.6441 -0.3347 -3.7578 5.9542 -43.7073 -18.1418 88.2838 1.9694 37.3660 10.3219 -8.8974 9.8214 0.9043 1.6208 -37.0906 -19.2603 
0.0000 93.1000 0.0000 -72.5722 -10.9089 -173.4778 -71.0401 -0.1640 87.8532 94.8685 72.6588 -6.0114 1.8155 23.8481 -2.0413 -141.3279 4.2384 -167.6967 -146.7642 40.1087 -175.4355 -1.6320 -19.0626 -38.7511 -140.6679 2.1460 -79.9500 11.1737 2.9545 -74.6896 -0.4406 0.1683 0.1708 -2.2427 7.3740 37.9682 -46.8240 -19.1200 145.1591 8.5125 2.8230 107.5933 0.3532 -0.0077 -0.1099 -35.7262 20.8438 100.6678 -4.9333 55.8204 -1.8543 -0.0135 -16.5286 -1.7568 -1.3490 -2.0624 8.2986 -44.5814 -18.0992 84.2219 1.3906 36.3670 10.2893 -12.4096 6.9772 1.2930 1.2500 -36.3994 -18.6598 
0.0000 93.1000 0.0000 -72.3763 -11.0378 -173.2568 -71.0412 -0.1231 87.8403 94.1441 72.5982 -5.2747 1.9187 23.8076 -2.1407 -140.4150 3.6009 -166.5392 -147.2418 39.6152 -174.6107 -1.8837 -18.9503 -38.7570 -140.2575 1.2664 -78.0043 9.9569 2.2676 -74.9046 -0.2912 0.4048 0.0984 -2.3081 7.3906 38.2064 -45.1307 -17.9881 144.9432 9.6482 3.3341 106.7763 0.0597 0.2630 -0.2114 -36.5783 22.7170 100.7728 -4.8589 55.2972 -2.5571 -0.2782 -15.3362 -1.9088 0.1225 -3.7405 8.3193 -45.6676 -16.9116 83.1184 0.9602 35.8025 10.1968 -14.0365 3.6763 1.6576 0.9107 -33.9670 -20.0863 
0.0000 93.1000 0.0000 -72.6251 -11.7151 -172.7029 -71.0391 -0.1668 87.8378 94.1050 72.0095 -5.4002 1.9379 23.3215 -2.1666 -139.9782 3.2255 -168.2222 -147.5616 39.1240 -174.3616 -1.6705 -18.9644 -38.8094 -139.5816 0.2473 -77.2014 9.7189 1.9895 -75.1056 -0.4722 0.1938 0.2868 -2.2960 7.0925 38.1979 -44.1073 -18.0419 144.1616 9.5699 3.3888 106.7162 0.3996 0.0041 -0.2420 -36.8975 23.1021 100.0205 -4.6865 55.2364 -2.4034 -0.6222 -14.7232 -1.6325 -0.1578 -3.9897 7.3452 -46.7462 -15.9680 82.6703 0.3554 36.3414 11.5704 -15.3183 3.1621 1.6418 0.4538 -35.3799 -23.1000 
0.0000 93.1000 0.0000 -73.4284 -12.0148 -173.9749 -71.0453 -0.1425 87.8215 93.8558 71.8035 -4.9840 1.9204 22.9365 -2.0713 -140.0558 2.7152 -167.7956 -146.1248 38.7078 -174.9927 -1.8880 -19.0920 -38.7013 -140.3389 0.0276 -75.0892 9.2426 1.8153 -74.7656 -0.4353 0.3612 0.3392 -2.2843 7.1775 38.0025 -43.9775 -17.9728 143.8148 9.0572 3.2518 106.6558 0.2865 0.1758 -0.2124 -37.5493 23.2416 100.7878 -5.0449 54.3022 -2.5793 -0.7156 -14.4188 -1.6885 -0.4032 -3.7066 6.2586 -46.7269 -15.8941 83.2561 1.7485 37.3521 11.3802 -16.8808 2.5651 1.8238 0.5729 -36.6873 -26.6196 
0.0000 93.1000 0.0000 -73.5544 -11.8417 -173.5058 -71.0466 -0.1861 87.8279 92.7663 71.6541 -4.0072 2.6194 22.9460 -3.1371 -139.9621 2.5230 -167.9719 -146.2088 38.1158 -174.4945 -1.7075 -18.9944 -38.8760 -140.1776 -0.0100 -73.9926 7.7900 1.9162 -74.0705 -0.4531 0.1676 0.3787 -2.2285 7.2663 37.2221 -43.9854 -18.3710 143.9318 8.7439 2.3474 106.6868 0.4137 0.0074 0.1314 -37.8418 23.7375 101.7828 -4.4108 53.5547 -3.2736 -1.1430 -13.4757 -1.4265 0.2328 -3.0007 4.5609 -46.8888 -16.2051 83.6269 1.4296 37.3116 9.5991 -14.3239 -0.5610 1.2797 0.6840 -31.3024 -22.2067 
0.0000 93.1000 0.0000 -73.5200 -12.7333 -173.4740 -71.0381 -0.1668 87.8234 90.7368 71.5120 -1.9070 3.1523 22.2303 -2.4143 -139.0547 2.4820 -167.7650 -144.3882 38.0381 -175.5105 -1.7535 -18.8317 -38.7626 -139.7368 -0.5577 -74.4905 5.9927 1.1729 -73.8359 -0.1205 0.2816 0.2269 -2.1194 7.0940 36.7104 -42.9250 -18.1463 144.0642 10.4998 3.2648 106.7114 0.1256 0.1230 -0.0684 -38.9472 24.2815 102.6004 -4.5162 52.1892 -4.2320 -2.0168 -12.4252 -1.2843 1.0261 -5.0858 2.5614 -46.1963 -16.8187 84.3336 1.2624 38.3613 10.6078 -13.7591 -0.9586 1.1452 1.0750 -30.2414 -19.9845 
0.0000 93.1000 0.0000 -73.5887 -12.9635 -173.5603 -71.0238 -0.1502 87.8216 89.6541 71.3003 -1.0420 3.8681 21.5509 -2.2852 -139.0513 2.5430 -166.9090 -144.9183 38.0205 -176.8278 -1.7735 -18.6607 -38.7152 -140.1125 -0.7504 -72.7783 5.8894 0.8914 -74.0227 -0.2826 0.3787 0.1655 -2.0676 6.9891 37.1067 -43.1713 -18.2216 143.9846 11.7283 4.0668 106.7509 -0.0803 0.2333 -0.1221 -38.7825 25.0329 103.9494 -3.3682 51.3737 -4.2120 -2.7412 -11.1234 -1.1821 1.8310 -6.8398 -1.0680 -46.0465 -16.9499 83.5728 1.8238 39.3218 11.0088 -13.3207 -1.1663 0.9954 1.1294 -29.6964 -18.7594 
